<svg xmlns="http://www.w3.org/2000/svg" viewBox="0 0 32 32"><circle id="ya-webmaster_svg__path-1" cx="16" cy="16" r="16" fill="#FFF"/><circle cx="16" cy="16" r="15.5" fill="none" stroke="#000" stroke-opacity=".07"/><g transform="translate(1.07 7.979)"><path id="ya-webmaster_svg__XMLID_2_" fill="#000" d="M20.813 2.371a3.228 3.228 0 0 0-.626-1.209l-1.146 2.102-1.898-1.096L18.29.062a2.984 2.984 0 0 0-1.325.078c-1.66.479-2.629 2.258-2.16 3.967.098.363.256.696.454.988l-2.988 5.501c-.35-.023-.705.01-1.061.112-1.66.48-2.63 2.259-2.161 3.967.125.458.342.866.626 1.209l1.146-2.106 1.898 1.097-1.147 2.106c.428.071.88.05 1.325-.078 1.66-.48 2.629-2.259 2.16-3.967a3.228 3.228 0 0 0-.457-.991l2.988-5.492c.35.027.708-.01 1.064-.112 1.66-.482 2.629-2.258 2.161-3.97Z"/><path id="ya-webmaster_svg__XMLID_48_" fill="red" d="M6.09233462 13.0213777.930921053 8.02137767 6.09233462 3.02137767 7.93092105 4.80362006 4.61143681 8.02137767 7.93092105 11.2391353z"/><path id="ya-webmaster_svg__XMLID_47_" fill="red" d="M23.7703859 13.0213777 21.9309211 11.2391353 25.2519913 8.02137767 21.9309211 4.80362006 23.7703859 3.02137767 28.9309211 8.02137767z"/></g></svg>